<svg xmlns="http://www.w3.org/2000/svg"  viewBox="0 0 100 100" width="200px" height="200px"><path fill="#c9dcf4" d="m71.99,88.11c-14.66,1.19-29.31,1.19-43.97,0-3.67-.3-6.52-3.29-6.71-6.96-1.04-20.43-1.04-40.86,0-61.3.19-3.68,3.05-6.66,6.72-6.96,9.87-.8,19.74-1.06,29.62-.78,2.13.06,4.14.98,5.62,2.52,4.46,4.66,9.01,9.34,13.6,13.94,1.47,1.47,2.33,3.45,2.39,5.53.43,15.69.24,31.37-.55,47.06-.19,3.67-3.04,6.66-6.71,6.96Z"/><path fill="#4a254b" d="m50,73c2.57,0,4.68-1.94,4.97-4.43.03-.3-.19-.57-.49-.57-1.73,0-7.22,0-8.95,0-.3,0-.53.27-.49.57.28,2.49,2.4,4.43,4.97,4.43Z"/><circle cx="39.5" cy="61.5" r="5.5" fill="#fff"/><circle cx="39.5" cy="61.5" r="2.5" fill="#4a254b"/><circle cx="60.5" cy="61.5" r="5.5" fill="#fff"/><circle cx="60.5" cy="61.5" r="2.5" fill="#4a254b"/><path fill="#6b96d6" d="m68.63,31.42h10.08c-.41-1.06-1.03-2.04-1.85-2.87-4.58-4.6-9.13-9.28-13.6-13.94-.9-.94-2-1.64-3.21-2.07l.02,10.32c.01,4.72,3.84,8.54,8.56,8.54Z"/></svg>